<svg width="713" height="1007" viewBox="0 0 713 1007" fill="none" xmlns="http://www.w3.org/2000/svg">
<g clip-path="url(#clip0_124_460)">
<path d="M167.8 67.8154V135.631H275.951V90.4206H212.962V45.2103H275.951V0H167.8V67.8154ZM297.463 44.1395L297.641 88.3385L329.017 88.517L360.333 88.636V96.3693H297.344V137.416H405.495V46.9949H342.506V39.2616H405.495V0H297.344L297.463 44.1395ZM427.482 44.318V88.636H489.877V96.3693H427.482V137.416H535.039V46.9949H472.644V39.2616H535.039V0H427.482V44.318ZM0.463134 199.996C0.641405 201.067 15.2596 364.835 32.9679 563.939C50.6761 763.043 65.1755 925.978 65.235 926.038C65.2944 926.097 130.72 944.36 210.704 966.549L356.114 1007L501.88 966.549C582.043 944.3 647.706 926.038 647.706 925.978C647.765 925.978 662.265 763.162 679.973 564.236C697.681 365.311 712.299 201.543 712.478 200.294L712.834 198.092H0.166016L0.463134 199.996ZM579.606 348.119C579.606 349.428 575.387 396.958 550.548 675.418C544.368 744.721 539.079 801.65 538.782 801.888C538.129 802.483 357.718 852.452 356.292 852.452C355.163 852.452 173.861 802.245 173.445 801.769C173.327 801.65 170.534 771.193 167.265 734.072C163.938 696.952 161.145 665.424 160.907 663.996L160.61 661.498H205.475C230.195 661.498 250.399 661.558 250.459 661.617C250.459 661.736 251.885 677.679 253.667 697.071C255.391 716.524 256.936 732.466 257.055 732.585C257.173 732.704 279.457 738.831 306.673 746.148L356.054 759.533L405.554 746.148C432.83 738.772 455.233 732.645 455.351 732.585C455.589 732.288 465.453 622.117 465.513 619.084V616.883H156.51V615.395C156.51 614.563 154.786 594.515 152.647 570.899C150.508 547.283 148.785 527.89 148.785 527.771C148.785 527.711 221.935 527.652 311.308 527.652H473.832V526.165C473.832 525.391 475.555 505.166 477.695 481.371C479.834 457.516 481.557 437.529 481.557 436.993C481.557 436.101 468.425 436.041 311.19 435.922L140.762 435.744L137.138 395.293C135.117 373.044 133.275 353.057 133.037 350.796L132.681 346.811H579.606V348.119Z" fill="#91949C"/>
</g>
<defs>
<clipPath id="clip0_124_460">
<rect width="713" height="1007" fill="white"/>
</clipPath>
</defs>
</svg>
